<svg width="240" height="185" viewBox="0 0 240 185" fill="none" xmlns="http://www.w3.org/2000/svg">
<path d="M98 93.012C105.017 86.2204 122 77.012 141 93.012" stroke="black" stroke-width="1.5"/>
<path d="M91 71.012C100.302 66.4843 124.725 60.1454 148 71.012" stroke="black" stroke-width="1.5"/>
<path d="M83 93.012C106.837 74.512 119.288 44.512 120 0.0119915" stroke="black" stroke-width="1.5"/>
<path d="M157 93.012C133.163 74.512 120.712 44.512 120 0.0119915" stroke="black" stroke-width="1.5"/>
<path d="M7.33848 125.362C7.30514 125.395 7.27181 125.412 7.23848 125.412C7.13848 125.412 7.08848 125.262 7.08848 124.962C7.08848 124.762 7.13848 124.562 7.23848 124.362C7.37181 124.129 7.60514 123.995 7.93848 123.962C8.87181 123.895 9.75514 123.579 10.5885 123.012C11.4218 122.445 12.1551 121.779 12.7885 121.012C13.4218 120.212 13.8718 119.462 14.1385 118.762L18.7385 107.262C19.3718 105.695 20.0885 104.179 20.8885 102.712C21.7218 101.245 22.7718 100.045 24.0385 99.112C25.3385 98.1787 26.9718 97.712 28.9385 97.712C29.7051 97.712 30.4718 97.812 31.2385 98.012C32.0385 98.1787 32.7051 98.462 33.2385 98.862C33.7718 99.262 34.0385 99.8287 34.0385 100.562C34.0385 100.662 34.0385 100.762 34.0385 100.862C34.0385 100.962 34.0218 101.062 33.9885 101.162C33.8885 101.695 33.5885 102.229 33.0885 102.762C32.6218 103.295 32.2551 103.962 31.9885 104.762C31.9551 104.995 31.8051 105.112 31.5385 105.112C31.3051 105.112 31.2551 104.962 31.3885 104.662C31.6551 104.262 31.8551 103.795 31.9885 103.262C32.1551 102.695 32.2385 102.129 32.2385 101.562C32.2385 100.695 32.0385 99.9287 31.6385 99.262C31.2385 98.5953 30.5551 98.262 29.5885 98.262C28.7218 98.262 27.8385 98.512 26.9385 99.012C26.0385 99.512 25.2551 100.379 24.5885 101.612L15.3385 118.662C14.4718 120.262 13.6718 121.412 12.9385 122.112C12.2385 122.779 11.6551 123.195 11.1885 123.362H23.2385C24.8385 123.362 26.3218 123.312 27.6885 123.212C29.0551 123.112 29.8885 122.862 30.1885 122.462C30.5218 121.995 30.6885 121.495 30.6885 120.962C30.6885 120.129 30.2385 119.512 29.3385 119.112C29.2385 119.045 29.1885 118.979 29.1885 118.912C29.1885 118.845 29.2218 118.779 29.2885 118.712C29.3885 118.645 29.5051 118.645 29.6385 118.712C29.9385 118.845 30.2885 119.145 30.6885 119.612C31.1218 120.045 31.5218 120.529 31.8885 121.062C32.2551 121.562 32.4885 121.962 32.5885 122.262C32.6885 122.562 32.7385 122.862 32.7385 123.162C32.7385 124.529 31.5551 125.212 29.1885 125.212C27.3218 125.212 25.3218 125.145 23.1885 125.012C21.0551 124.879 18.9385 124.729 16.8385 124.562C14.7718 124.395 12.8218 124.279 10.9885 124.212C10.2885 124.145 9.58848 124.245 8.88848 124.512C8.22181 124.745 7.70514 125.029 7.33848 125.362ZM38.8322 125.412C37.4656 125.412 36.5156 125.145 35.9822 124.612C35.4489 124.079 35.1822 123.429 35.1822 122.662C35.1822 121.695 35.4322 120.662 35.9322 119.562C36.4656 118.462 36.9656 117.529 37.4322 116.762C37.9656 115.962 38.6822 115.129 39.5822 114.262C40.4822 113.395 41.4656 112.662 42.5322 112.062C43.5989 111.462 44.6322 111.162 45.6322 111.162C46.4989 111.162 47.0989 111.379 47.4322 111.812C47.7656 112.212 47.9322 112.695 47.9322 113.262C47.9322 114.295 47.6156 115.145 46.9822 115.812C46.3822 116.479 45.6322 117.029 44.7322 117.462C43.8322 117.862 42.9656 118.195 42.1322 118.462C41.6322 118.595 41.0489 118.729 40.3822 118.862C39.7156 118.995 39.0822 119.062 38.4822 119.062C38.2489 119.662 38.0656 120.245 37.9322 120.812C37.7989 121.379 37.7322 121.895 37.7322 122.362C37.7322 122.929 37.8656 123.395 38.1322 123.762C38.4322 124.129 38.9156 124.312 39.5822 124.312C39.8489 124.312 40.1656 124.279 40.5322 124.212C40.8989 124.145 41.2989 124.045 41.7322 123.912C42.7322 123.579 43.7156 123.045 44.6822 122.312C45.6489 121.579 46.5322 120.795 47.3322 119.962C48.1656 119.095 48.7989 118.379 49.2322 117.812C49.3322 117.912 49.3822 118.029 49.3822 118.162C49.3822 118.329 49.2656 118.595 49.0322 118.962C48.3656 119.895 47.4989 120.862 46.4322 121.862C45.3656 122.862 44.1822 123.712 42.8822 124.412C41.5822 125.079 40.2322 125.412 38.8322 125.412ZM38.8822 118.062C39.3156 118.095 39.7989 118.095 40.3322 118.062C40.8989 117.995 41.4489 117.879 41.9822 117.712C43.3489 117.312 44.3322 116.679 44.9322 115.812C45.5656 114.912 45.8822 114.112 45.8822 113.412C45.8822 113.012 45.7989 112.679 45.6322 112.412C45.4656 112.145 45.1989 112.012 44.8322 112.012C43.8656 112.012 42.9989 112.379 42.2322 113.112C41.4656 113.812 40.7989 114.629 40.2322 115.562C39.6656 116.495 39.2156 117.329 38.8822 118.062ZM51.4334 125.812C50.8334 125.812 50.2001 125.729 49.5334 125.562C48.8667 125.395 48.2667 125.129 47.7334 124.762C47.2334 124.362 46.9001 123.829 46.7334 123.162C46.7001 123.062 46.6834 122.912 46.6834 122.712C46.6834 122.245 46.7834 121.729 46.9834 121.162C47.2167 120.595 47.5001 120.195 47.8334 119.962C47.9667 119.895 48.0667 119.895 48.1334 119.962C48.2334 120.029 48.2501 120.095 48.1834 120.162C48.1501 120.262 48.1001 120.395 48.0334 120.562C47.9667 120.695 47.9167 120.845 47.8834 121.012C47.7834 121.879 47.9667 122.645 48.4334 123.312C48.6334 123.579 48.8667 123.829 49.1334 124.062C49.4334 124.295 49.7167 124.495 49.9834 124.662C50.2167 124.795 50.5001 124.895 50.8334 124.962C51.1667 124.995 51.5001 125.012 51.8334 125.012C52.3667 125.012 52.8834 124.945 53.3834 124.812C53.8834 124.679 54.2501 124.462 54.4834 124.162C54.9167 123.629 55.1334 123.029 55.1334 122.362C55.1334 121.862 55.0001 121.329 54.7334 120.762C54.4667 120.195 54.0501 119.595 53.4834 118.962C53.1167 118.562 52.7667 118.129 52.4334 117.662C52.1001 117.195 51.8834 116.695 51.7834 116.162C51.7501 116.062 51.7167 115.962 51.6834 115.862C51.6834 115.762 51.6834 115.662 51.6834 115.562C51.2501 116.195 50.8001 116.795 50.3334 117.362C49.9001 117.895 49.5167 118.362 49.1834 118.762C49.0501 118.962 48.9334 119.062 48.8334 119.062C48.7667 119.062 48.7334 118.995 48.7334 118.862C48.7334 118.562 48.8667 118.245 49.1334 117.912C49.4001 117.612 49.7001 117.245 50.0334 116.812C50.3667 116.345 50.6334 115.979 50.8334 115.712C51.4001 114.879 51.8167 114.229 52.0834 113.762C52.3834 113.262 52.7001 112.812 53.0334 112.412C53.4001 111.979 53.8501 111.629 54.3834 111.362C54.9501 111.095 55.5334 110.962 56.1334 110.962C56.8334 110.962 57.4667 111.079 58.0334 111.312C58.6334 111.512 58.9501 112.045 58.9834 112.912C58.9834 113.312 58.9001 113.729 58.7334 114.162C58.6001 114.562 58.4501 114.945 58.2834 115.312C58.1834 115.512 58.0334 115.662 57.8334 115.762C57.6667 115.829 57.5834 115.795 57.5834 115.662C57.5834 115.529 57.6001 115.379 57.6334 115.212C57.6667 115.045 57.6834 114.895 57.6834 114.762C57.6834 114.195 57.5834 113.695 57.3834 113.262C57.2167 112.795 56.9667 112.462 56.6334 112.262C56.3001 112.029 55.9501 111.912 55.5834 111.912C55.0501 111.912 54.5334 112.129 54.0334 112.562C53.5334 112.962 53.2834 113.495 53.2834 114.162C53.2834 114.229 53.2834 114.312 53.2834 114.412C53.2834 114.512 53.3001 114.595 53.3334 114.662C53.4667 115.195 53.8667 115.795 54.5334 116.462C55.2001 117.129 55.7167 117.712 56.0834 118.212C56.7167 119.079 57.0334 119.962 57.0334 120.862C57.0334 121.762 56.7667 122.595 56.2334 123.362C55.7334 124.095 55.0501 124.679 54.1834 125.112C53.3501 125.579 52.4334 125.812 51.4334 125.812ZM68.8018 125.762C68.6684 125.762 68.6684 125.612 68.8018 125.312C68.9684 125.012 69.1184 124.679 69.2518 124.312C69.4184 123.945 69.5851 123.545 69.7518 123.112C70.0851 122.312 70.4518 121.412 70.8518 120.412C71.2518 119.412 71.6351 118.445 72.0018 117.512C72.3684 116.545 72.6851 115.729 72.9518 115.062C73.2518 114.362 73.4518 113.912 73.5518 113.712C73.0851 114.212 72.5184 114.845 71.8518 115.612C71.2184 116.345 70.6184 117.062 70.0518 117.762C69.4851 118.462 69.0518 119.012 68.7518 119.412C68.6518 119.545 68.5684 119.612 68.5018 119.612C68.4351 119.612 68.4018 119.529 68.4018 119.362C68.4018 119.095 68.4851 118.845 68.6518 118.612C69.2851 117.812 69.9851 116.912 70.7518 115.912C71.5518 114.912 72.2684 113.995 72.9018 113.162C73.5351 112.295 73.9351 111.729 74.1018 111.462C74.4684 111.395 75.0018 111.295 75.7018 111.162C76.4351 111.029 76.9351 110.845 77.2018 110.612C77.3018 110.512 77.4018 110.462 77.5018 110.462C77.5684 110.462 77.6018 110.529 77.6018 110.662C77.6351 110.762 77.6018 110.879 77.5018 111.012C77.3018 111.245 76.9518 111.795 76.4518 112.662C75.9851 113.495 75.4684 114.429 74.9018 115.462C74.3684 116.495 73.8684 117.429 73.4018 118.262C73.9351 117.629 74.4518 117.029 74.9518 116.462C75.4851 115.895 75.8518 115.495 76.0518 115.262C76.4518 114.862 77.0018 114.362 77.7018 113.762C78.4018 113.162 79.1351 112.612 79.9018 112.112C80.6684 111.612 81.3351 111.329 81.9018 111.262C82.0351 111.229 82.1518 111.212 82.2518 111.212C82.3518 111.212 82.4518 111.212 82.5518 111.212C83.1851 111.212 83.5018 111.445 83.5018 111.912C83.5018 112.112 83.4518 112.345 83.3518 112.612C83.2518 112.879 83.1184 113.145 82.9518 113.412C82.7518 113.812 82.4184 114.445 81.9518 115.312C81.4851 116.145 81.0684 116.912 80.7018 117.612L83.0518 115.262C83.4518 114.862 84.0018 114.362 84.7018 113.762C85.4018 113.162 86.1351 112.612 86.9018 112.112C87.6684 111.612 88.3351 111.329 88.9018 111.262C89.0351 111.229 89.1518 111.212 89.2518 111.212C89.3851 111.212 89.4851 111.212 89.5518 111.212C90.2851 111.212 90.6518 111.479 90.6518 112.012C90.6518 112.412 90.4351 112.945 90.0018 113.612C89.7684 113.979 89.4018 114.595 88.9018 115.462C88.4018 116.329 87.8851 117.279 87.3518 118.312C86.8518 119.312 86.4184 120.245 86.0518 121.112C85.6851 121.979 85.5018 122.612 85.5018 123.012C85.5018 123.479 85.7351 123.712 86.2018 123.712C86.6351 123.712 87.1851 123.462 87.8518 122.962C88.5518 122.429 89.2518 121.795 89.9518 121.062C90.6851 120.329 91.3184 119.629 91.8518 118.962C92.0851 118.695 92.3018 118.429 92.5018 118.162C92.7351 117.862 92.8684 117.695 92.9018 117.662C92.9684 117.729 93.0018 117.845 93.0018 118.012C93.0018 118.245 92.9184 118.479 92.7518 118.712C92.6184 118.912 92.4851 119.095 92.3518 119.262C91.7184 120.095 90.9851 120.962 90.1518 121.862C89.3518 122.762 88.4684 123.529 87.5018 124.162C86.5351 124.762 85.5018 125.112 84.4018 125.212C84.0684 125.245 83.7351 125.179 83.4018 125.012C83.0684 124.845 82.9018 124.579 82.9018 124.212C82.9018 123.745 83.0184 123.195 83.2518 122.562C83.5184 121.929 83.8018 121.295 84.1018 120.662C84.4351 120.029 84.6851 119.512 84.8518 119.112C85.4518 117.945 86.0018 116.845 86.5018 115.812C87.0018 114.779 87.3518 114.045 87.5518 113.612C87.6518 113.412 87.7018 113.245 87.7018 113.112C87.7018 112.879 87.5184 112.862 87.1518 113.062C86.7851 113.262 86.3351 113.562 85.8018 113.962C85.3018 114.362 84.8351 114.762 84.4018 115.162C83.9684 115.529 83.6851 115.779 83.5518 115.912C82.9851 116.479 82.3018 117.245 81.5018 118.212C80.7351 119.179 80.0184 120.195 79.3518 121.262C78.6851 122.295 78.2184 123.262 77.9518 124.162C77.6184 124.462 77.3018 124.612 77.0018 124.612C76.7684 124.612 76.5684 124.529 76.4018 124.362C76.2684 124.195 76.2018 123.995 76.2018 123.762C76.2018 123.095 76.4018 122.312 76.8018 121.412C77.2351 120.479 77.5851 119.712 77.8518 119.112C78.4518 117.945 79.0018 116.845 79.5018 115.812C80.0018 114.779 80.3518 114.045 80.5518 113.612C80.6518 113.412 80.7018 113.245 80.7018 113.112C80.7018 112.879 80.5184 112.862 80.1518 113.062C79.7851 113.262 79.3351 113.562 78.8018 113.962C78.3018 114.362 77.8351 114.762 77.4018 115.162C76.9684 115.529 76.6851 115.779 76.5518 115.912C75.7518 116.745 75.0018 117.595 74.3018 118.462C73.6351 119.329 73.0684 120.262 72.6018 121.262C72.3351 121.862 72.0518 122.529 71.7518 123.262C71.4518 123.995 71.2018 124.612 71.0018 125.112C70.5684 125.145 70.1351 125.262 69.7018 125.462C69.2684 125.662 68.9684 125.762 68.8018 125.762ZM92.7881 125.112C92.2548 125.112 91.7714 125.012 91.3381 124.812C90.9381 124.579 90.7381 124.095 90.7381 123.362C90.7381 122.195 91.0381 121.029 91.6381 119.862C92.2381 118.662 92.8548 117.612 93.4881 116.712C94.0548 115.945 94.6881 115.229 95.3881 114.562C96.1214 113.862 96.9048 113.262 97.7381 112.762C98.2714 112.429 98.9881 112.079 99.8881 111.712C100.821 111.312 101.605 111.112 102.238 111.112C102.771 111.112 103.238 111.262 103.638 111.562C104.038 111.829 104.238 112.329 104.238 113.062C104.238 114.195 103.938 115.362 103.338 116.562C102.771 117.729 102.171 118.762 101.538 119.662C101.238 120.062 100.938 120.445 100.638 120.812C100.338 121.145 100.005 121.495 99.6381 121.862C100.871 121.862 102.005 121.512 103.038 120.812C104.071 120.079 104.971 119.195 105.738 118.162L105.838 118.062C105.938 118.062 105.988 118.162 105.988 118.362C105.988 118.595 105.921 118.812 105.788 119.012C105.121 119.945 104.288 120.779 103.288 121.512C102.288 122.212 101.155 122.562 99.8881 122.562C99.7548 122.562 99.6214 122.562 99.4881 122.562C99.3548 122.562 99.2214 122.545 99.0881 122.512C97.2214 124.245 95.1214 125.112 92.7881 125.112ZM94.0881 124.262C94.5548 124.262 95.0548 124.095 95.5881 123.762C96.1548 123.429 96.5881 123.112 96.8881 122.812C97.4548 122.245 97.9714 121.645 98.4381 121.012C98.9048 120.345 99.3381 119.679 99.7381 119.012C100.205 118.212 100.671 117.262 101.138 116.162C101.605 115.062 101.838 114.029 101.838 113.062C101.838 112.295 101.571 111.912 101.038 111.912C100.605 111.912 100.071 112.095 99.4381 112.462C98.8381 112.829 98.3881 113.162 98.0881 113.462C96.9548 114.629 96.0048 115.895 95.2381 117.262C94.8048 118.029 94.3381 118.929 93.8381 119.962C93.3381 120.995 93.0881 121.945 93.0881 122.812C93.0881 122.945 93.0881 123.079 93.0881 123.212C93.1214 123.312 93.1548 123.429 93.1881 123.562C93.3214 124.029 93.6214 124.262 94.0881 124.262ZM103.471 142.112C103.237 142.112 103.121 141.995 103.121 141.762C103.154 141.529 103.387 140.862 103.821 139.762C104.287 138.662 104.871 137.295 105.571 135.662C106.271 134.029 107.004 132.312 107.771 130.512C108.571 128.712 109.337 126.995 110.071 125.362C110.804 123.762 111.421 122.412 111.921 121.312C112.454 120.212 112.771 119.579 112.871 119.412C112.304 120.012 111.704 120.612 111.071 121.212C110.437 121.779 109.804 122.345 109.171 122.912C108.537 123.445 107.837 123.945 107.071 124.412C106.337 124.879 105.537 125.112 104.671 125.112C104.337 125.112 104.104 125.012 103.971 124.812C103.837 124.579 103.771 124.312 103.771 124.012V123.662C103.937 122.362 104.354 121.012 105.021 119.612C105.721 118.212 106.554 116.895 107.521 115.662C108.487 114.429 109.471 113.429 110.471 112.662C111.537 111.795 112.787 111.362 114.221 111.362H119.971C120.137 111.362 120.221 111.429 120.221 111.562C120.221 111.829 120.071 111.962 119.771 111.962C119.404 111.962 119.054 112.179 118.721 112.612C118.387 113.012 118.137 113.345 117.971 113.612C117.137 114.912 116.237 116.445 115.271 118.212C114.304 119.945 113.337 121.795 112.371 123.762C111.437 125.695 110.554 127.579 109.721 129.412C108.921 131.279 108.254 132.945 107.721 134.412C108.487 133.179 109.387 131.812 110.421 130.312C111.454 128.845 112.537 127.345 113.671 125.812C114.837 124.312 115.971 122.862 117.071 121.462C118.204 120.029 119.204 118.762 120.071 117.662C120.137 117.795 120.171 117.895 120.171 117.962C120.171 118.295 120.004 118.679 119.671 119.112C118.537 120.612 117.287 122.262 115.921 124.062C114.587 125.862 113.271 127.712 111.971 129.612C110.671 131.545 109.504 133.429 108.471 135.262C107.437 137.129 106.654 138.895 106.121 140.562C106.087 140.695 105.904 140.879 105.571 141.112C105.237 141.379 104.871 141.612 104.471 141.812C104.071 142.012 103.737 142.112 103.471 142.112ZM106.721 123.412C107.121 123.412 107.671 123.129 108.371 122.562C109.071 121.962 109.837 121.229 110.671 120.362C111.504 119.462 112.287 118.529 113.021 117.562C113.754 116.562 114.354 115.662 114.821 114.862C115.321 114.029 115.571 113.395 115.571 112.962C115.571 112.595 115.454 112.345 115.221 112.212C115.021 112.079 114.754 112.012 114.421 112.012C113.887 112.012 113.321 112.212 112.721 112.612C112.121 112.979 111.637 113.345 111.271 113.712C110.871 114.079 110.387 114.662 109.821 115.462C109.287 116.229 108.737 117.079 108.171 118.012C107.637 118.945 107.187 119.845 106.821 120.712C106.454 121.579 106.271 122.279 106.271 122.812C106.271 123.212 106.421 123.412 106.721 123.412ZM121.985 125.162C121.652 125.162 121.369 125.095 121.135 124.962C120.902 124.829 120.785 124.579 120.785 124.212C120.785 123.745 120.902 123.195 121.135 122.562C121.402 121.929 121.685 121.295 121.985 120.662C122.285 120.029 122.535 119.512 122.735 119.112C123.135 118.345 123.519 117.579 123.885 116.812C124.252 116.045 124.569 115.395 124.835 114.862C125.102 114.362 125.235 114.029 125.235 113.862C125.235 113.595 125.035 113.595 124.635 113.862C124.269 114.129 123.919 114.395 123.585 114.662C122.852 115.362 122.085 116.195 121.285 117.162C120.485 118.095 119.869 118.845 119.435 119.412C119.335 119.545 119.252 119.612 119.185 119.612C119.119 119.612 119.085 119.529 119.085 119.362C119.085 119.095 119.169 118.845 119.335 118.612C119.802 117.945 120.352 117.212 120.985 116.412C121.619 115.612 122.269 114.845 122.935 114.112C123.569 113.445 124.219 112.795 124.885 112.162C125.552 111.529 126.402 111.212 127.435 111.212C128.135 111.212 128.485 111.479 128.485 112.012C128.485 112.479 128.285 113.012 127.885 113.612C127.652 113.979 127.285 114.595 126.785 115.462C126.285 116.329 125.769 117.279 125.235 118.312C124.735 119.312 124.302 120.245 123.935 121.112C123.569 121.979 123.385 122.612 123.385 123.012C123.385 123.479 123.619 123.712 124.085 123.712C124.452 123.712 124.902 123.529 125.435 123.162C125.969 122.762 126.519 122.295 127.085 121.762C128.119 120.762 129.052 119.679 129.885 118.512C130.752 117.312 131.485 116.162 132.085 115.062C132.719 113.962 133.219 113.062 133.585 112.362C133.652 112.229 133.719 112.079 133.785 111.912C133.885 111.712 134.035 111.595 134.235 111.562C134.435 111.529 134.869 111.512 135.535 111.512C136.202 111.512 136.819 111.379 137.385 111.112H137.485C137.585 111.112 137.635 111.162 137.635 111.262C137.635 111.529 137.419 111.729 136.985 111.862C136.585 111.995 136.119 112.395 135.585 113.062C135.085 113.729 134.585 114.545 134.085 115.512C133.585 116.445 133.135 117.412 132.735 118.412C132.335 119.412 132.035 120.329 131.835 121.162C131.635 121.995 131.585 122.612 131.685 123.012C131.819 123.479 132.052 123.712 132.385 123.712C132.819 123.712 133.419 123.445 134.185 122.912C134.985 122.379 135.802 121.745 136.635 121.012C137.469 120.245 138.152 119.545 138.685 118.912C138.919 118.645 139.135 118.379 139.335 118.112C139.535 117.845 139.669 117.679 139.735 117.612C139.769 117.645 139.802 117.712 139.835 117.812C139.869 117.879 139.885 117.945 139.885 118.012C139.852 118.245 139.769 118.479 139.635 118.712C139.502 118.912 139.352 119.095 139.185 119.262C138.552 120.095 137.785 120.979 136.885 121.912C136.019 122.812 135.069 123.579 134.035 124.212C133.035 124.845 132.002 125.162 130.935 125.162C130.602 125.162 130.219 125.079 129.785 124.912C129.385 124.745 129.185 124.379 129.185 123.812C129.185 123.379 129.302 122.795 129.535 122.062C129.769 121.295 130.019 120.545 130.285 119.812C130.585 119.045 130.835 118.479 131.035 118.112C130.602 118.745 130.069 119.462 129.435 120.262C128.835 121.029 128.219 121.712 127.585 122.312C126.752 123.112 125.852 123.795 124.885 124.362C123.952 124.895 122.985 125.162 121.985 125.162ZM141.664 125.412C140.298 125.412 139.348 125.145 138.814 124.612C138.281 124.079 138.014 123.429 138.014 122.662C138.014 121.695 138.264 120.662 138.764 119.562C139.298 118.462 139.798 117.529 140.264 116.762C140.798 115.962 141.514 115.129 142.414 114.262C143.314 113.395 144.298 112.662 145.364 112.062C146.431 111.462 147.464 111.162 148.464 111.162C149.331 111.162 149.931 111.379 150.264 111.812C150.598 112.212 150.764 112.695 150.764 113.262C150.764 114.295 150.448 115.145 149.814 115.812C149.214 116.479 148.464 117.029 147.564 117.462C146.664 117.862 145.798 118.195 144.964 118.462C144.464 118.595 143.881 118.729 143.214 118.862C142.548 118.995 141.914 119.062 141.314 119.062C141.081 119.662 140.898 120.245 140.764 120.812C140.631 121.379 140.564 121.895 140.564 122.362C140.564 122.929 140.698 123.395 140.964 123.762C141.264 124.129 141.748 124.312 142.414 124.312C142.681 124.312 142.998 124.279 143.364 124.212C143.731 124.145 144.131 124.045 144.564 123.912C145.564 123.579 146.548 123.045 147.514 122.312C148.481 121.579 149.364 120.795 150.164 119.962C150.998 119.095 151.631 118.379 152.064 117.812C152.164 117.912 152.214 118.029 152.214 118.162C152.214 118.329 152.098 118.595 151.864 118.962C151.198 119.895 150.331 120.862 149.264 121.862C148.198 122.862 147.014 123.712 145.714 124.412C144.414 125.079 143.064 125.412 141.664 125.412ZM141.714 118.062C142.148 118.095 142.631 118.095 143.164 118.062C143.731 117.995 144.281 117.879 144.814 117.712C146.181 117.312 147.164 116.679 147.764 115.812C148.398 114.912 148.714 114.112 148.714 113.412C148.714 113.012 148.631 112.679 148.464 112.412C148.298 112.145 148.031 112.012 147.664 112.012C146.698 112.012 145.831 112.379 145.064 113.112C144.298 113.812 143.631 114.629 143.064 115.562C142.498 116.495 142.048 117.329 141.714 118.062ZM153.265 125.162C152.932 125.162 152.649 125.095 152.415 124.962C152.182 124.829 152.065 124.579 152.065 124.212C152.065 123.745 152.182 123.195 152.415 122.562C152.682 121.929 152.965 121.295 153.265 120.662C153.565 120.029 153.815 119.512 154.015 119.112C154.182 118.812 154.399 118.345 154.665 117.712C154.965 117.045 155.265 116.362 155.565 115.662C155.899 114.929 156.165 114.312 156.365 113.812C156.599 113.312 156.715 113.062 156.715 113.062C156.415 113.395 156.015 113.862 155.515 114.462C155.049 115.062 154.532 115.695 153.965 116.362C153.432 116.995 152.932 117.595 152.465 118.162C152.032 118.729 151.715 119.145 151.515 119.412C151.415 119.545 151.332 119.612 151.265 119.612C151.199 119.612 151.165 119.529 151.165 119.362C151.165 119.095 151.249 118.845 151.415 118.612C151.815 118.112 152.299 117.512 152.865 116.812C153.432 116.079 153.999 115.345 154.565 114.612C155.165 113.879 155.682 113.229 156.115 112.662C155.849 112.662 155.499 112.679 155.065 112.712C154.665 112.745 154.299 112.795 153.965 112.862C153.632 112.895 153.449 112.912 153.415 112.912C153.249 112.912 153.265 112.779 153.465 112.512C153.665 112.245 153.932 111.979 154.265 111.712C154.599 111.445 154.849 111.312 155.015 111.312C155.049 111.312 155.315 111.329 155.815 111.362C156.315 111.362 156.682 111.362 156.915 111.362C157.582 110.462 158.232 109.429 158.865 108.262C159.532 107.095 160.182 105.812 160.815 104.412C161.082 104.379 161.532 104.195 162.165 103.862C162.832 103.495 163.349 103.129 163.715 102.762C163.882 102.595 164.015 102.512 164.115 102.512C164.315 102.512 164.315 102.645 164.115 102.912C163.882 103.179 163.482 103.745 162.915 104.612C162.349 105.445 161.715 106.462 161.015 107.662C160.315 108.829 159.649 110.062 159.015 111.362H163.065C163.432 111.362 163.615 111.412 163.615 111.512C163.615 111.645 163.365 111.779 162.865 111.912C162.299 112.079 161.699 112.179 161.065 112.212C160.465 112.245 159.899 112.312 159.365 112.412C158.865 112.512 158.499 112.729 158.265 113.062C158.065 113.295 157.782 113.795 157.415 114.562C157.049 115.329 156.649 116.212 156.215 117.212C155.815 118.179 155.465 119.162 155.165 120.162C154.865 121.129 154.682 121.945 154.615 122.612V122.812C154.615 123.079 154.699 123.295 154.865 123.462C155.032 123.629 155.199 123.712 155.365 123.712C155.799 123.712 156.349 123.445 157.015 122.912C157.715 122.379 158.432 121.745 159.165 121.012C159.899 120.245 160.532 119.545 161.065 118.912C161.299 118.645 161.499 118.395 161.665 118.162C161.865 117.929 161.982 117.779 162.015 117.712C162.082 117.845 162.115 117.945 162.115 118.012C162.115 118.212 162.049 118.429 161.915 118.662C161.815 118.895 161.699 119.095 161.565 119.262C160.932 120.095 160.165 120.979 159.265 121.912C158.365 122.812 157.399 123.579 156.365 124.212C155.365 124.845 154.332 125.162 153.265 125.162ZM163.178 125.162C162.844 125.162 162.561 125.095 162.328 124.962C162.094 124.829 161.978 124.579 161.978 124.212C161.978 123.745 162.094 123.195 162.328 122.562C162.594 121.929 162.878 121.295 163.178 120.662C163.478 120.029 163.728 119.512 163.928 119.112C164.094 118.812 164.311 118.345 164.578 117.712C164.878 117.045 165.178 116.362 165.478 115.662C165.811 114.929 166.078 114.312 166.278 113.812C166.511 113.312 166.628 113.062 166.628 113.062C166.328 113.395 165.928 113.862 165.428 114.462C164.961 115.062 164.444 115.695 163.878 116.362C163.344 116.995 162.844 117.595 162.378 118.162C161.944 118.729 161.628 119.145 161.428 119.412C161.328 119.545 161.244 119.612 161.178 119.612C161.111 119.612 161.078 119.529 161.078 119.362C161.078 119.095 161.161 118.845 161.328 118.612C161.728 118.112 162.211 117.512 162.778 116.812C163.344 116.079 163.911 115.345 164.478 114.612C165.078 113.879 165.594 113.229 166.028 112.662C165.761 112.662 165.411 112.679 164.978 112.712C164.578 112.745 164.211 112.795 163.878 112.862C163.544 112.895 163.361 112.912 163.328 112.912C163.161 112.912 163.178 112.779 163.378 112.512C163.578 112.245 163.844 111.979 164.178 111.712C164.511 111.445 164.761 111.312 164.928 111.312C164.961 111.312 165.228 111.329 165.728 111.362C166.228 111.362 166.594 111.362 166.828 111.362C167.494 110.462 168.144 109.429 168.778 108.262C169.444 107.095 170.094 105.812 170.728 104.412C170.994 104.379 171.444 104.195 172.078 103.862C172.744 103.495 173.261 103.129 173.628 102.762C173.794 102.595 173.928 102.512 174.028 102.512C174.228 102.512 174.228 102.645 174.028 102.912C173.794 103.179 173.394 103.745 172.828 104.612C172.261 105.445 171.628 106.462 170.928 107.662C170.228 108.829 169.561 110.062 168.928 111.362H172.978C173.344 111.362 173.528 111.412 173.528 111.512C173.528 111.645 173.278 111.779 172.778 111.912C172.211 112.079 171.611 112.179 170.978 112.212C170.378 112.245 169.811 112.312 169.278 112.412C168.778 112.512 168.411 112.729 168.178 113.062C167.978 113.295 167.694 113.795 167.328 114.562C166.961 115.329 166.561 116.212 166.128 117.212C165.728 118.179 165.378 119.162 165.078 120.162C164.778 121.129 164.594 121.945 164.528 122.612V122.812C164.528 123.079 164.611 123.295 164.778 123.462C164.944 123.629 165.111 123.712 165.278 123.712C165.711 123.712 166.261 123.445 166.928 122.912C167.628 122.379 168.344 121.745 169.078 121.012C169.811 120.245 170.444 119.545 170.978 118.912C171.211 118.645 171.411 118.395 171.578 118.162C171.778 117.929 171.894 117.779 171.928 117.712C171.994 117.845 172.028 117.945 172.028 118.012C172.028 118.212 171.961 118.429 171.828 118.662C171.728 118.895 171.611 119.095 171.478 119.262C170.844 120.095 170.078 120.979 169.178 121.912C168.278 122.812 167.311 123.579 166.278 124.212C165.278 124.845 164.244 125.162 163.178 125.162ZM181.49 105.912C181.023 105.912 180.69 105.762 180.49 105.462C180.356 105.295 180.29 105.079 180.29 104.812C180.29 104.279 180.54 103.845 181.04 103.512C181.406 103.312 181.74 103.212 182.04 103.212C182.54 103.212 182.89 103.362 183.09 103.662C183.223 103.829 183.29 104.045 183.29 104.312C183.29 104.845 183.023 105.279 182.49 105.612C182.19 105.812 181.856 105.912 181.49 105.912ZM172.79 125.162C172.456 125.162 172.173 125.095 171.94 124.962C171.74 124.829 171.64 124.579 171.64 124.212C171.64 123.745 171.756 123.195 171.99 122.562C172.256 121.929 172.54 121.295 172.84 120.662C173.173 120.029 173.423 119.512 173.59 119.112C173.823 118.645 174.106 118.045 174.44 117.312C174.806 116.545 175.14 115.829 175.44 115.162C175.773 114.462 176.006 113.979 176.14 113.712C175.673 114.212 175.106 114.845 174.44 115.612C173.806 116.345 173.206 117.062 172.64 117.762C172.073 118.462 171.64 119.012 171.34 119.412C171.24 119.545 171.156 119.612 171.09 119.612C171.023 119.612 170.99 119.529 170.99 119.362C170.99 119.095 171.073 118.845 171.24 118.612C171.873 117.812 172.573 116.912 173.34 115.912C174.14 114.912 174.856 113.995 175.49 113.162C176.123 112.295 176.523 111.729 176.69 111.462C177.056 111.395 177.59 111.295 178.29 111.162C179.023 111.029 179.523 110.845 179.79 110.612C179.89 110.512 179.99 110.462 180.09 110.462C180.156 110.462 180.19 110.529 180.19 110.662C180.223 110.762 180.19 110.879 180.09 111.012C179.89 111.245 179.54 111.812 179.04 112.712C178.54 113.612 178.006 114.612 177.44 115.712C176.906 116.779 176.406 117.745 175.94 118.612C175.473 119.512 175.073 120.379 174.74 121.212C174.406 122.045 174.24 122.645 174.24 123.012C174.24 123.479 174.473 123.712 174.94 123.712C175.373 123.712 175.923 123.445 176.59 122.912C177.29 122.379 177.99 121.745 178.69 121.012C179.39 120.245 180.006 119.545 180.54 118.912C180.706 118.712 180.906 118.479 181.14 118.212C181.406 117.912 181.573 117.729 181.64 117.662C181.706 117.729 181.74 117.845 181.74 118.012C181.706 118.245 181.623 118.479 181.49 118.712C181.356 118.912 181.223 119.095 181.09 119.262C180.39 120.129 179.623 121.029 178.79 121.962C177.956 122.862 177.04 123.629 176.04 124.262C175.04 124.862 173.956 125.162 172.79 125.162ZM183.709 125.812C183.109 125.812 182.475 125.729 181.809 125.562C181.142 125.395 180.542 125.129 180.009 124.762C179.509 124.362 179.175 123.829 179.009 123.162C178.975 123.062 178.959 122.912 178.959 122.712C178.959 122.245 179.059 121.729 179.259 121.162C179.492 120.595 179.775 120.195 180.109 119.962C180.242 119.895 180.342 119.895 180.409 119.962C180.509 120.029 180.525 120.095 180.459 120.162C180.425 120.262 180.375 120.395 180.309 120.562C180.242 120.695 180.192 120.845 180.159 121.012C180.059 121.879 180.242 122.645 180.709 123.312C180.909 123.579 181.142 123.829 181.409 124.062C181.709 124.295 181.992 124.495 182.259 124.662C182.492 124.795 182.775 124.895 183.109 124.962C183.442 124.995 183.775 125.012 184.109 125.012C184.642 125.012 185.159 124.945 185.659 124.812C186.159 124.679 186.525 124.462 186.759 124.162C187.192 123.629 187.409 123.029 187.409 122.362C187.409 121.862 187.275 121.329 187.009 120.762C186.742 120.195 186.325 119.595 185.759 118.962C185.392 118.562 185.042 118.129 184.709 117.662C184.375 117.195 184.159 116.695 184.059 116.162C184.025 116.062 183.992 115.962 183.959 115.862C183.959 115.762 183.959 115.662 183.959 115.562C183.525 116.195 183.075 116.795 182.609 117.362C182.175 117.895 181.792 118.362 181.459 118.762C181.325 118.962 181.209 119.062 181.109 119.062C181.042 119.062 181.009 118.995 181.009 118.862C181.009 118.562 181.142 118.245 181.409 117.912C181.675 117.612 181.975 117.245 182.309 116.812C182.642 116.345 182.909 115.979 183.109 115.712C183.675 114.879 184.092 114.229 184.359 113.762C184.659 113.262 184.975 112.812 185.309 112.412C185.675 111.979 186.125 111.629 186.659 111.362C187.225 111.095 187.809 110.962 188.409 110.962C189.109 110.962 189.742 111.079 190.309 111.312C190.909 111.512 191.225 112.045 191.259 112.912C191.259 113.312 191.175 113.729 191.009 114.162C190.875 114.562 190.725 114.945 190.559 115.312C190.459 115.512 190.309 115.662 190.109 115.762C189.942 115.829 189.859 115.795 189.859 115.662C189.859 115.529 189.875 115.379 189.909 115.212C189.942 115.045 189.959 114.895 189.959 114.762C189.959 114.195 189.859 113.695 189.659 113.262C189.492 112.795 189.242 112.462 188.909 112.262C188.575 112.029 188.225 111.912 187.859 111.912C187.325 111.912 186.809 112.129 186.309 112.562C185.809 112.962 185.559 113.495 185.559 114.162C185.559 114.229 185.559 114.312 185.559 114.412C185.559 114.512 185.575 114.595 185.609 114.662C185.742 115.195 186.142 115.795 186.809 116.462C187.475 117.129 187.992 117.712 188.359 118.212C188.992 119.079 189.309 119.962 189.309 120.862C189.309 121.762 189.042 122.595 188.509 123.362C188.009 124.095 187.325 124.679 186.459 125.112C185.625 125.579 184.709 125.812 183.709 125.812ZM194.33 125.162C193.997 125.162 193.713 125.095 193.48 124.962C193.247 124.829 193.13 124.579 193.13 124.212C193.13 123.745 193.247 123.195 193.48 122.562C193.747 121.929 194.03 121.295 194.33 120.662C194.63 120.029 194.88 119.512 195.08 119.112C195.247 118.812 195.463 118.345 195.73 117.712C196.03 117.045 196.33 116.362 196.63 115.662C196.963 114.929 197.23 114.312 197.43 113.812C197.663 113.312 197.78 113.062 197.78 113.062C197.48 113.395 197.08 113.862 196.58 114.462C196.113 115.062 195.597 115.695 195.03 116.362C194.497 116.995 193.997 117.595 193.53 118.162C193.097 118.729 192.78 119.145 192.58 119.412C192.48 119.545 192.397 119.612 192.33 119.612C192.263 119.612 192.23 119.529 192.23 119.362C192.23 119.095 192.313 118.845 192.48 118.612C192.88 118.112 193.363 117.512 193.93 116.812C194.497 116.079 195.063 115.345 195.63 114.612C196.23 113.879 196.747 113.229 197.18 112.662C196.913 112.662 196.563 112.679 196.13 112.712C195.73 112.745 195.363 112.795 195.03 112.862C194.697 112.895 194.513 112.912 194.48 112.912C194.313 112.912 194.33 112.779 194.53 112.512C194.73 112.245 194.997 111.979 195.33 111.712C195.663 111.445 195.913 111.312 196.08 111.312C196.113 111.312 196.38 111.329 196.88 111.362C197.38 111.362 197.747 111.362 197.98 111.362C198.647 110.462 199.297 109.429 199.93 108.262C200.597 107.095 201.247 105.812 201.88 104.412C202.147 104.379 202.597 104.195 203.23 103.862C203.897 103.495 204.413 103.129 204.78 102.762C204.947 102.595 205.08 102.512 205.18 102.512C205.38 102.512 205.38 102.645 205.18 102.912C204.947 103.179 204.547 103.745 203.98 104.612C203.413 105.445 202.78 106.462 202.08 107.662C201.38 108.829 200.713 110.062 200.08 111.362H204.13C204.497 111.362 204.68 111.412 204.68 111.512C204.68 111.645 204.43 111.779 203.93 111.912C203.363 112.079 202.763 112.179 202.13 112.212C201.53 112.245 200.963 112.312 200.43 112.412C199.93 112.512 199.563 112.729 199.33 113.062C199.13 113.295 198.847 113.795 198.48 114.562C198.113 115.329 197.713 116.212 197.28 117.212C196.88 118.179 196.53 119.162 196.23 120.162C195.93 121.129 195.747 121.945 195.68 122.612V122.812C195.68 123.079 195.763 123.295 195.93 123.462C196.097 123.629 196.263 123.712 196.43 123.712C196.863 123.712 197.413 123.445 198.08 122.912C198.78 122.379 199.497 121.745 200.23 121.012C200.963 120.245 201.597 119.545 202.13 118.912C202.363 118.645 202.563 118.395 202.73 118.162C202.93 117.929 203.047 117.779 203.08 117.712C203.147 117.845 203.18 117.945 203.18 118.012C203.18 118.212 203.113 118.429 202.98 118.662C202.88 118.895 202.763 119.095 202.63 119.262C201.997 120.095 201.23 120.979 200.33 121.912C199.43 122.812 198.463 123.579 197.43 124.212C196.43 124.845 195.397 125.162 194.33 125.162ZM205.092 125.412C203.725 125.412 202.775 125.145 202.242 124.612C201.709 124.079 201.442 123.429 201.442 122.662C201.442 121.695 201.692 120.662 202.192 119.562C202.725 118.462 203.225 117.529 203.692 116.762C204.225 115.962 204.942 115.129 205.842 114.262C206.742 113.395 207.725 112.662 208.792 112.062C209.859 111.462 210.892 111.162 211.892 111.162C212.759 111.162 213.359 111.379 213.692 111.812C214.025 112.212 214.192 112.695 214.192 113.262C214.192 114.295 213.875 115.145 213.242 115.812C212.642 116.479 211.892 117.029 210.992 117.462C210.092 117.862 209.225 118.195 208.392 118.462C207.892 118.595 207.309 118.729 206.642 118.862C205.975 118.995 205.342 119.062 204.742 119.062C204.509 119.662 204.325 120.245 204.192 120.812C204.059 121.379 203.992 121.895 203.992 122.362C203.992 122.929 204.125 123.395 204.392 123.762C204.692 124.129 205.175 124.312 205.842 124.312C206.109 124.312 206.425 124.279 206.792 124.212C207.159 124.145 207.559 124.045 207.992 123.912C208.992 123.579 209.975 123.045 210.942 122.312C211.909 121.579 212.792 120.795 213.592 119.962C214.425 119.095 215.059 118.379 215.492 117.812C215.592 117.912 215.642 118.029 215.642 118.162C215.642 118.329 215.525 118.595 215.292 118.962C214.625 119.895 213.759 120.862 212.692 121.862C211.625 122.862 210.442 123.712 209.142 124.412C207.842 125.079 206.492 125.412 205.092 125.412ZM205.142 118.062C205.575 118.095 206.059 118.095 206.592 118.062C207.159 117.995 207.709 117.879 208.242 117.712C209.609 117.312 210.592 116.679 211.192 115.812C211.825 114.912 212.142 114.112 212.142 113.412C212.142 113.012 212.059 112.679 211.892 112.412C211.725 112.145 211.459 112.012 211.092 112.012C210.125 112.012 209.259 112.379 208.492 113.112C207.725 113.812 207.059 114.629 206.492 115.562C205.925 116.495 205.475 117.329 205.142 118.062ZM217.693 125.812C217.093 125.812 216.46 125.729 215.793 125.562C215.126 125.395 214.526 125.129 213.993 124.762C213.493 124.362 213.16 123.829 212.993 123.162C212.96 123.062 212.943 122.912 212.943 122.712C212.943 122.245 213.043 121.729 213.243 121.162C213.476 120.595 213.76 120.195 214.093 119.962C214.226 119.895 214.326 119.895 214.393 119.962C214.493 120.029 214.51 120.095 214.443 120.162C214.41 120.262 214.36 120.395 214.293 120.562C214.226 120.695 214.176 120.845 214.143 121.012C214.043 121.879 214.226 122.645 214.693 123.312C214.893 123.579 215.126 123.829 215.393 124.062C215.693 124.295 215.976 124.495 216.243 124.662C216.476 124.795 216.76 124.895 217.093 124.962C217.426 124.995 217.76 125.012 218.093 125.012C218.626 125.012 219.143 124.945 219.643 124.812C220.143 124.679 220.51 124.462 220.743 124.162C221.176 123.629 221.393 123.029 221.393 122.362C221.393 121.862 221.26 121.329 220.993 120.762C220.726 120.195 220.31 119.595 219.743 118.962C219.376 118.562 219.026 118.129 218.693 117.662C218.36 117.195 218.143 116.695 218.043 116.162C218.01 116.062 217.976 115.962 217.943 115.862C217.943 115.762 217.943 115.662 217.943 115.562C217.51 116.195 217.06 116.795 216.593 117.362C216.16 117.895 215.776 118.362 215.443 118.762C215.31 118.962 215.193 119.062 215.093 119.062C215.026 119.062 214.993 118.995 214.993 118.862C214.993 118.562 215.126 118.245 215.393 117.912C215.66 117.612 215.96 117.245 216.293 116.812C216.626 116.345 216.893 115.979 217.093 115.712C217.66 114.879 218.076 114.229 218.343 113.762C218.643 113.262 218.96 112.812 219.293 112.412C219.66 111.979 220.11 111.629 220.643 111.362C221.21 111.095 221.793 110.962 222.393 110.962C223.093 110.962 223.726 111.079 224.293 111.312C224.893 111.512 225.21 112.045 225.243 112.912C225.243 113.312 225.16 113.729 224.993 114.162C224.86 114.562 224.71 114.945 224.543 115.312C224.443 115.512 224.293 115.662 224.093 115.762C223.926 115.829 223.843 115.795 223.843 115.662C223.843 115.529 223.86 115.379 223.893 115.212C223.926 115.045 223.943 114.895 223.943 114.762C223.943 114.195 223.843 113.695 223.643 113.262C223.476 112.795 223.226 112.462 222.893 112.262C222.56 112.029 222.21 111.912 221.843 111.912C221.31 111.912 220.793 112.129 220.293 112.562C219.793 112.962 219.543 113.495 219.543 114.162C219.543 114.229 219.543 114.312 219.543 114.412C219.543 114.512 219.56 114.595 219.593 114.662C219.726 115.195 220.126 115.795 220.793 116.462C221.46 117.129 221.976 117.712 222.343 118.212C222.976 119.079 223.293 119.962 223.293 120.862C223.293 121.762 223.026 122.595 222.493 123.362C221.993 124.095 221.31 124.679 220.443 125.112C219.61 125.579 218.693 125.812 217.693 125.812ZM74.1465 172.162C73.8132 172.162 73.5298 172.095 73.2965 171.962C73.0632 171.829 72.9465 171.579 72.9465 171.212C72.9465 170.745 73.0632 170.212 73.2965 169.612C73.5298 169.012 73.7965 168.429 74.0965 167.862C74.3965 167.262 74.6632 166.779 74.8965 166.412C73.7298 167.645 72.5132 168.812 71.2465 169.912C70.6132 170.445 69.9132 170.945 69.1465 171.412C68.3798 171.879 67.5632 172.112 66.6965 172.112C66.3632 172.112 66.1298 172.012 65.9965 171.812C65.8632 171.579 65.7965 171.312 65.7965 171.012C65.7965 170.845 65.8132 170.729 65.8465 170.662C66.0132 169.362 66.4298 168.012 67.0965 166.612C67.7632 165.212 68.5798 163.895 69.5465 162.662C70.5132 161.429 71.4965 160.429 72.4965 159.662C73.2632 159.095 73.9965 158.745 74.6965 158.612C75.3965 158.445 76.1632 158.362 76.9965 158.362H78.6465C79.1798 157.462 79.7298 156.462 80.2965 155.362C80.8965 154.229 81.4798 153.112 82.0465 152.012C82.6465 150.912 83.1965 149.945 83.6965 149.112C85.0632 146.779 86.5632 144.912 88.1965 143.512C89.8632 142.112 91.7132 141.412 93.7465 141.412C94.1798 141.412 94.5798 141.545 94.9465 141.812C95.3132 142.045 95.4798 142.412 95.4465 142.912L95.3465 144.712C95.3465 144.745 95.3132 144.795 95.2465 144.862C95.1798 144.895 95.1298 144.912 95.0965 144.912C95.0632 144.912 95.0132 144.879 94.9465 144.812C94.8465 144.212 94.5465 143.762 94.0465 143.462C93.5465 143.129 92.9298 142.962 92.1965 142.962C91.9632 142.962 91.6965 142.979 91.3965 143.012C91.1298 143.045 90.8632 143.112 90.5965 143.212C89.6632 143.545 88.7798 144.229 87.9465 145.262C87.1132 146.262 86.2132 147.595 85.2465 149.262C84.9132 149.895 84.4798 150.729 83.9465 151.762C83.4132 152.762 82.8465 153.845 82.2465 155.012C81.6798 156.179 81.1298 157.312 80.5965 158.412C80.0965 159.512 79.6632 160.445 79.2965 161.212C79.1298 161.612 78.8465 162.229 78.4465 163.062C78.0465 163.862 77.6132 164.745 77.1465 165.712C76.7132 166.645 76.3298 167.512 75.9965 168.312C75.6965 169.112 75.5465 169.679 75.5465 170.012C75.5465 170.479 75.7465 170.712 76.1465 170.712C76.5465 170.712 77.0798 170.479 77.7465 170.012C78.4132 169.512 79.0965 168.912 79.7965 168.212C80.5298 167.479 81.1798 166.779 81.7465 166.112C82.3465 165.445 82.7632 164.945 82.9965 164.612C83.0965 164.712 83.1465 164.829 83.1465 164.962C83.1465 165.195 83.0465 165.429 82.8465 165.662C82.6798 165.895 82.5298 166.095 82.3965 166.262C81.7965 167.062 81.0465 167.929 80.1465 168.862C79.2798 169.762 78.3298 170.545 77.2965 171.212C76.2632 171.845 75.2132 172.162 74.1465 172.162ZM68.7465 170.412C69.1465 170.412 69.6965 170.129 70.3965 169.562C71.1298 168.962 71.9132 168.229 72.7465 167.362C73.5798 166.462 74.3632 165.529 75.0965 164.562C75.8298 163.562 76.4298 162.662 76.8965 161.862C77.3965 161.029 77.6465 160.395 77.6465 159.962C77.6465 159.595 77.5298 159.345 77.2965 159.212C77.0965 159.079 76.8298 159.012 76.4965 159.012C75.9632 159.012 75.3798 159.212 74.7465 159.612C74.1465 159.979 73.6632 160.345 73.2965 160.712C72.8965 161.079 72.4132 161.662 71.8465 162.462C71.3132 163.229 70.7798 164.079 70.2465 165.012C69.7132 165.945 69.2632 166.845 68.8965 167.712C68.5298 168.579 68.3465 169.279 68.3465 169.812C68.3465 170.212 68.4798 170.412 68.7465 170.412ZM84.3938 172.412C83.0271 172.412 82.0771 172.145 81.5438 171.612C81.0104 171.079 80.7438 170.429 80.7438 169.662C80.7438 168.695 80.9938 167.662 81.4937 166.562C82.0271 165.462 82.5271 164.529 82.9938 163.762C83.5271 162.962 84.2438 162.129 85.1438 161.262C86.0438 160.395 87.0271 159.662 88.0938 159.062C89.1604 158.462 90.1938 158.162 91.1938 158.162C92.0604 158.162 92.6604 158.379 92.9938 158.812C93.3271 159.212 93.4938 159.695 93.4938 160.262C93.4938 161.295 93.1771 162.145 92.5438 162.812C91.9438 163.479 91.1938 164.029 90.2938 164.462C89.3938 164.862 88.5271 165.195 87.6938 165.462C87.1938 165.595 86.6104 165.729 85.9438 165.862C85.2771 165.995 84.6438 166.062 84.0438 166.062C83.8104 166.662 83.6271 167.245 83.4938 167.812C83.3604 168.379 83.2938 168.895 83.2938 169.362C83.2938 169.929 83.4271 170.395 83.6938 170.762C83.9938 171.129 84.4771 171.312 85.1438 171.312C85.4104 171.312 85.7271 171.279 86.0938 171.212C86.4604 171.145 86.8604 171.045 87.2938 170.912C88.2938 170.579 89.2771 170.045 90.2438 169.312C91.2104 168.579 92.0938 167.795 92.8938 166.962C93.7271 166.095 94.3604 165.379 94.7938 164.812C94.8938 164.912 94.9438 165.029 94.9438 165.162C94.9438 165.329 94.8271 165.595 94.5938 165.962C93.9271 166.895 93.0604 167.862 91.9938 168.862C90.9271 169.862 89.7438 170.712 88.4438 171.412C87.1438 172.079 85.7938 172.412 84.3938 172.412ZM84.4438 165.062C84.8771 165.095 85.3604 165.095 85.8938 165.062C86.4604 164.995 87.0104 164.879 87.5438 164.712C88.9104 164.312 89.8938 163.679 90.4938 162.812C91.1271 161.912 91.4438 161.112 91.4438 160.412C91.4438 160.012 91.3604 159.679 91.1938 159.412C91.0271 159.145 90.7604 159.012 90.3938 159.012C89.4271 159.012 88.5604 159.379 87.7938 160.112C87.0271 160.812 86.3604 161.629 85.7938 162.562C85.2271 163.495 84.7771 164.329 84.4438 165.062ZM100.442 172.962C100.209 172.962 100.026 172.895 99.8922 172.762C99.7589 172.662 99.7589 172.579 99.8922 172.512C100.626 172.379 101.259 172.112 101.792 171.712C102.326 171.279 102.759 170.745 103.092 170.112C103.792 168.945 104.476 167.779 105.142 166.612C105.842 165.412 106.509 164.212 107.142 163.012C107.909 161.545 108.692 160.079 109.492 158.612C110.292 157.112 111.092 155.629 111.892 154.162C112.659 152.795 113.342 151.479 113.942 150.212C114.542 148.945 114.992 148.029 115.292 147.462C115.526 147.029 115.926 146.645 116.492 146.312C117.092 145.945 117.676 145.662 118.242 145.462C118.042 145.462 117.842 145.462 117.642 145.462C117.442 145.429 117.226 145.412 116.992 145.412C115.959 145.412 114.826 145.479 113.592 145.612C112.392 145.712 111.209 145.879 110.042 146.112C108.909 146.345 107.909 146.662 107.042 147.062C106.176 147.462 105.592 147.945 105.292 148.512C105.159 148.812 105.042 149.112 104.942 149.412C104.842 149.712 104.792 150.012 104.792 150.312C104.792 151.079 105.059 151.629 105.592 151.962C105.626 151.962 105.642 151.995 105.642 152.062C105.642 152.129 105.576 152.195 105.442 152.262C105.342 152.329 105.259 152.345 105.192 152.312C104.859 152.145 104.476 151.745 104.042 151.112C103.642 150.445 103.376 149.895 103.242 149.462C103.142 149.062 103.092 148.695 103.092 148.362C103.092 147.495 103.376 146.829 103.942 146.362C104.509 145.862 105.226 145.512 106.092 145.312C106.959 145.079 107.842 144.945 108.742 144.912C109.676 144.845 110.492 144.812 111.192 144.812C112.259 144.812 113.526 144.812 114.992 144.812C116.459 144.779 117.809 144.762 119.042 144.762C119.342 144.762 119.676 144.762 120.042 144.762C120.409 144.729 120.792 144.712 121.192 144.712C122.092 144.712 123.026 144.762 123.992 144.862C124.959 144.962 125.842 145.179 126.642 145.512C127.442 145.845 128.059 146.362 128.492 147.062C129.159 148.095 129.492 149.195 129.492 150.362C129.492 151.662 129.109 152.895 128.342 154.062C127.609 155.195 126.676 156.195 125.542 157.062C124.409 157.929 123.259 158.595 122.092 159.062C120.992 159.495 119.759 159.795 118.392 159.962C117.059 160.129 115.859 160.212 114.792 160.212C114.459 160.212 114.126 160.212 113.792 160.212C113.492 160.179 113.226 160.145 112.992 160.112C112.926 160.112 112.892 160.079 112.892 160.012C112.892 159.879 113.026 159.695 113.292 159.462C113.559 159.195 113.776 159.079 113.942 159.112C114.209 159.145 114.476 159.162 114.742 159.162C115.009 159.162 115.292 159.162 115.592 159.162C116.859 159.162 118.209 158.995 119.642 158.662C121.076 158.329 122.392 157.695 123.592 156.762C124.826 155.795 125.759 154.395 126.392 152.562C126.559 152.162 126.659 151.762 126.692 151.362C126.759 150.929 126.792 150.512 126.792 150.112C126.792 148.979 126.509 147.979 125.942 147.112C125.376 146.245 124.559 145.745 123.492 145.612C123.359 145.579 123.209 145.562 123.042 145.562C122.876 145.562 122.709 145.562 122.542 145.562C121.909 145.562 121.209 145.645 120.442 145.812C119.709 145.979 119.159 146.295 118.792 146.762C117.959 147.862 117.159 149.112 116.392 150.512C115.626 151.879 114.892 153.279 114.192 154.712C113.492 156.112 112.826 157.429 112.192 158.662C112.026 158.995 111.709 159.595 111.242 160.462C110.776 161.295 110.259 162.262 109.692 163.362C109.126 164.429 108.592 165.495 108.092 166.562C107.592 167.629 107.192 168.579 106.892 169.412C106.626 170.245 106.559 170.812 106.692 171.112C106.726 171.145 106.742 171.195 106.742 171.262C106.742 171.362 106.692 171.412 106.592 171.412C106.326 171.412 106.059 171.345 105.792 171.212C105.526 171.079 105.209 171.012 104.842 171.012C104.509 171.012 104.176 171.095 103.842 171.262C103.509 171.395 103.076 171.645 102.542 172.012C102.009 172.379 101.409 172.679 100.742 172.912C100.676 172.945 100.576 172.962 100.442 172.962ZM134.793 172.162C134.46 172.162 134.176 172.095 133.943 171.962C133.71 171.829 133.593 171.579 133.593 171.212C133.593 170.745 133.71 170.212 133.943 169.612C134.176 169.012 134.443 168.429 134.743 167.862C135.043 167.262 135.31 166.779 135.543 166.412C134.376 167.645 133.16 168.812 131.893 169.912C131.26 170.445 130.56 170.945 129.793 171.412C129.026 171.879 128.21 172.112 127.343 172.112C127.01 172.112 126.776 172.012 126.643 171.812C126.51 171.579 126.443 171.312 126.443 171.012C126.443 170.845 126.46 170.729 126.493 170.662C126.66 169.362 127.076 168.012 127.743 166.612C128.41 165.212 129.226 163.895 130.193 162.662C131.16 161.429 132.143 160.429 133.143 159.662C134.276 158.795 135.526 158.362 136.893 158.362H142.643C142.81 158.362 142.893 158.429 142.893 158.562C142.893 158.829 142.743 158.962 142.443 158.962C142.11 158.962 141.776 159.179 141.443 159.612C141.11 160.012 140.86 160.345 140.693 160.612C140.46 160.979 140.093 161.595 139.593 162.462C139.093 163.329 138.576 164.279 138.043 165.312C137.543 166.312 137.11 167.245 136.743 168.112C136.376 168.979 136.193 169.612 136.193 170.012C136.193 170.479 136.426 170.712 136.893 170.712C137.393 170.712 137.96 170.479 138.593 170.012C139.226 169.545 139.86 168.979 140.493 168.312C141.16 167.612 141.76 166.929 142.293 166.262C142.86 165.562 143.31 165.012 143.643 164.612C143.843 164.812 143.826 165.095 143.593 165.462C143.393 165.795 143.21 166.062 143.043 166.262C142.376 167.129 141.61 168.029 140.743 168.962C139.876 169.862 138.926 170.629 137.893 171.262C136.893 171.862 135.86 172.162 134.793 172.162ZM129.393 170.412C129.793 170.412 130.343 170.129 131.043 169.562C131.776 168.962 132.56 168.229 133.393 167.362C134.226 166.462 135.01 165.529 135.743 164.562C136.476 163.562 137.076 162.662 137.543 161.862C138.043 161.029 138.293 160.395 138.293 159.962C138.293 159.595 138.176 159.345 137.943 159.212C137.743 159.079 137.476 159.012 137.143 159.012C136.61 159.012 136.026 159.212 135.393 159.612C134.793 159.979 134.31 160.345 133.943 160.712C133.543 161.079 133.06 161.662 132.493 162.462C131.96 163.229 131.426 164.079 130.893 165.012C130.36 165.945 129.91 166.845 129.543 167.712C129.176 168.579 128.993 169.279 128.993 169.812C128.993 170.212 129.126 170.412 129.393 170.412ZM142.49 172.712C142.357 172.712 142.357 172.579 142.49 172.312C142.657 172.012 142.807 171.679 142.94 171.312C143.107 170.945 143.274 170.545 143.44 170.112C143.774 169.312 144.14 168.412 144.54 167.412C144.94 166.412 145.324 165.445 145.69 164.512C146.057 163.545 146.374 162.729 146.64 162.062C146.94 161.362 147.14 160.912 147.24 160.712C146.774 161.212 146.207 161.845 145.54 162.612C144.907 163.345 144.307 164.062 143.74 164.762C143.174 165.462 142.74 166.012 142.44 166.412C142.34 166.545 142.257 166.612 142.19 166.612C142.124 166.612 142.09 166.529 142.09 166.362C142.09 166.095 142.174 165.845 142.34 165.612C142.974 164.812 143.674 163.912 144.44 162.912C145.24 161.912 145.957 160.995 146.59 160.162C147.224 159.295 147.624 158.729 147.79 158.462C148.157 158.395 148.69 158.295 149.39 158.162C150.124 158.029 150.624 157.845 150.89 157.612C150.99 157.512 151.09 157.462 151.19 157.462C151.257 157.462 151.29 157.529 151.29 157.662C151.324 157.762 151.29 157.879 151.19 158.012C150.99 158.212 150.69 158.645 150.29 159.312C149.924 159.979 149.507 160.745 149.04 161.612C148.574 162.479 148.124 163.312 147.69 164.112C148.024 163.612 148.457 163.029 148.99 162.362C149.557 161.662 150.174 160.995 150.84 160.362C151.507 159.695 152.174 159.145 152.84 158.712C153.54 158.279 154.19 158.062 154.79 158.062C155.224 158.062 155.59 158.162 155.89 158.362C156.19 158.529 156.424 158.845 156.59 159.312C156.69 159.545 156.74 159.812 156.74 160.112C156.74 160.679 156.59 161.229 156.29 161.762C156.024 162.262 155.824 162.645 155.69 162.912C155.657 163.012 155.54 163.112 155.34 163.212C155.14 163.279 155.057 163.245 155.09 163.112C155.124 162.945 155.14 162.779 155.14 162.612C155.174 162.445 155.19 162.262 155.19 162.062C155.19 161.495 155.074 160.979 154.84 160.512C154.64 160.045 154.257 159.812 153.69 159.812C153.157 159.812 152.507 160.145 151.74 160.812C150.974 161.479 150.207 162.245 149.44 163.112C148.474 164.245 147.707 165.329 147.14 166.362C146.574 167.362 146.107 168.345 145.74 169.312C145.54 169.845 145.34 170.379 145.14 170.912C144.94 171.412 144.79 171.812 144.69 172.112C144.257 172.145 143.824 172.245 143.39 172.412C142.957 172.612 142.657 172.712 142.49 172.712ZM165.713 152.912C165.247 152.912 164.913 152.762 164.713 152.462C164.58 152.295 164.513 152.079 164.513 151.812C164.513 151.279 164.763 150.845 165.263 150.512C165.63 150.312 165.963 150.212 166.263 150.212C166.763 150.212 167.113 150.362 167.313 150.662C167.447 150.829 167.513 151.045 167.513 151.312C167.513 151.845 167.247 152.279 166.713 152.612C166.413 152.812 166.08 152.912 165.713 152.912ZM157.013 172.162C156.68 172.162 156.397 172.095 156.163 171.962C155.963 171.829 155.863 171.579 155.863 171.212C155.863 170.745 155.98 170.195 156.213 169.562C156.48 168.929 156.763 168.295 157.063 167.662C157.397 167.029 157.647 166.512 157.813 166.112C158.047 165.645 158.33 165.045 158.663 164.312C159.03 163.545 159.363 162.829 159.663 162.162C159.997 161.462 160.23 160.979 160.363 160.712C159.897 161.212 159.33 161.845 158.663 162.612C158.03 163.345 157.43 164.062 156.863 164.762C156.297 165.462 155.863 166.012 155.563 166.412C155.463 166.545 155.38 166.612 155.313 166.612C155.247 166.612 155.213 166.529 155.213 166.362C155.213 166.095 155.297 165.845 155.463 165.612C156.097 164.812 156.797 163.912 157.563 162.912C158.363 161.912 159.08 160.995 159.713 160.162C160.347 159.295 160.747 158.729 160.913 158.462C161.28 158.395 161.813 158.295 162.513 158.162C163.247 158.029 163.747 157.845 164.013 157.612C164.113 157.512 164.213 157.462 164.313 157.462C164.38 157.462 164.413 157.529 164.413 157.662C164.447 157.762 164.413 157.879 164.313 158.012C164.113 158.245 163.763 158.812 163.263 159.712C162.763 160.612 162.23 161.612 161.663 162.712C161.13 163.779 160.63 164.745 160.163 165.612C159.697 166.512 159.297 167.379 158.963 168.212C158.63 169.045 158.463 169.645 158.463 170.012C158.463 170.479 158.697 170.712 159.163 170.712C159.597 170.712 160.147 170.445 160.813 169.912C161.513 169.379 162.213 168.745 162.913 168.012C163.613 167.245 164.23 166.545 164.763 165.912C164.93 165.712 165.13 165.479 165.363 165.212C165.63 164.912 165.797 164.729 165.863 164.662C165.93 164.729 165.963 164.845 165.963 165.012C165.93 165.245 165.847 165.479 165.713 165.712C165.58 165.912 165.447 166.095 165.313 166.262C164.613 167.129 163.847 168.029 163.013 168.962C162.18 169.862 161.263 170.629 160.263 171.262C159.263 171.862 158.18 172.162 157.013 172.162ZM167.432 172.812C166.832 172.812 166.199 172.729 165.532 172.562C164.866 172.395 164.266 172.129 163.732 171.762C163.232 171.362 162.899 170.829 162.732 170.162C162.699 170.062 162.682 169.912 162.682 169.712C162.682 169.245 162.782 168.729 162.982 168.162C163.216 167.595 163.499 167.195 163.832 166.962C163.966 166.895 164.066 166.895 164.132 166.962C164.232 167.029 164.249 167.095 164.182 167.162C164.149 167.262 164.099 167.395 164.032 167.562C163.966 167.695 163.916 167.845 163.882 168.012C163.782 168.879 163.966 169.645 164.432 170.312C164.632 170.579 164.866 170.829 165.132 171.062C165.432 171.295 165.716 171.495 165.982 171.662C166.216 171.795 166.499 171.895 166.832 171.962C167.166 171.995 167.499 172.012 167.832 172.012C168.366 172.012 168.882 171.945 169.382 171.812C169.882 171.679 170.249 171.462 170.482 171.162C170.916 170.629 171.132 170.029 171.132 169.362C171.132 168.862 170.999 168.329 170.732 167.762C170.466 167.195 170.049 166.595 169.482 165.962C169.116 165.562 168.766 165.129 168.432 164.662C168.099 164.195 167.882 163.695 167.782 163.162C167.749 163.062 167.716 162.962 167.682 162.862C167.682 162.762 167.682 162.662 167.682 162.562C167.249 163.195 166.799 163.795 166.332 164.362C165.899 164.895 165.516 165.362 165.182 165.762C165.049 165.962 164.932 166.062 164.832 166.062C164.766 166.062 164.732 165.995 164.732 165.862C164.732 165.562 164.866 165.245 165.132 164.912C165.399 164.612 165.699 164.245 166.032 163.812C166.366 163.345 166.632 162.979 166.832 162.712C167.399 161.879 167.816 161.229 168.082 160.762C168.382 160.262 168.699 159.812 169.032 159.412C169.399 158.979 169.849 158.629 170.382 158.362C170.949 158.095 171.532 157.962 172.132 157.962C172.832 157.962 173.466 158.079 174.032 158.312C174.632 158.512 174.949 159.045 174.982 159.912C174.982 160.312 174.899 160.729 174.732 161.162C174.599 161.562 174.449 161.945 174.282 162.312C174.182 162.512 174.032 162.662 173.832 162.762C173.666 162.829 173.582 162.795 173.582 162.662C173.582 162.529 173.599 162.379 173.632 162.212C173.666 162.045 173.682 161.895 173.682 161.762C173.682 161.195 173.582 160.695 173.382 160.262C173.216 159.795 172.966 159.462 172.632 159.262C172.299 159.029 171.949 158.912 171.582 158.912C171.049 158.912 170.532 159.129 170.032 159.562C169.532 159.962 169.282 160.495 169.282 161.162C169.282 161.229 169.282 161.312 169.282 161.412C169.282 161.512 169.299 161.595 169.332 161.662C169.466 162.195 169.866 162.795 170.532 163.462C171.199 164.129 171.716 164.712 172.082 165.212C172.716 166.079 173.032 166.962 173.032 167.862C173.032 168.762 172.766 169.595 172.232 170.362C171.732 171.095 171.049 171.679 170.182 172.112C169.349 172.579 168.432 172.812 167.432 172.812Z" fill="black"/>
</svg>
